<svg width="90" height="24" viewBox="0 0 90 24" fill="none" xmlns="http://www.w3.org/2000/svg">
<path d="M1.13033 23V1.18182H3.77237V20.6562H13.9144V23H1.13033ZM36.5648 12.0909C36.5648 14.392 36.1493 16.3807 35.3184 18.0568C34.4874 19.733 33.3475 21.0256 31.8986 21.9347C30.4498 22.8438 28.7949 23.2983 26.9341 23.2983C25.0733 23.2983 23.4185 22.8438 21.9696 21.9347C20.5208 21.0256 19.3809 19.733 18.5499 18.0568C17.7189 16.3807 17.3034 14.392 17.3034 12.0909C17.3034 9.78977 17.7189 7.80114 18.5499 6.125C19.3809 4.44886 20.5208 3.15625 21.9696 2.24716C23.4185 1.33807 25.0733 0.883522 26.9341 0.883522C28.7949 0.883522 30.4498 1.33807 31.8986 2.24716C33.3475 3.15625 34.4874 4.44886 35.3184 6.125C36.1493 7.80114 36.5648 9.78977 36.5648 12.0909ZM34.008 12.0909C34.008 10.2017 33.6919 8.60724 33.0598 7.30753C32.4348 6.00781 31.5861 5.02415 30.5137 4.35653C29.4483 3.68892 28.2551 3.35511 26.9341 3.35511C25.6131 3.35511 24.4164 3.68892 23.3439 4.35653C22.2786 5.02415 21.4299 6.00781 20.7978 7.30753C20.1728 8.60724 19.8603 10.2017 19.8603 12.0909C19.8603 13.9801 20.1728 15.5746 20.7978 16.8743C21.4299 18.174 22.2786 19.1577 23.3439 19.8253C24.4164 20.4929 25.6131 20.8267 26.9341 20.8267C28.2551 20.8267 29.4483 20.4929 30.5137 19.8253C31.5861 19.1577 32.4348 18.174 33.0598 16.8743C33.6919 15.5746 34.008 13.9801 34.008 12.0909ZM56.9221 8C56.6877 7.28267 56.3787 6.63991 55.9952 6.07173C55.6188 5.49645 55.1678 5.00639 54.6422 4.60156C54.1238 4.19673 53.5343 3.88778 52.8738 3.67471C52.2132 3.46165 51.4888 3.35511 50.7005 3.35511C49.4078 3.35511 48.2324 3.68892 47.1742 4.35653C46.1159 5.02415 45.2743 6.00781 44.6493 7.30753C44.0243 8.60724 43.7118 10.2017 43.7118 12.0909C43.7118 13.9801 44.0279 15.5746 44.66 16.8743C45.2921 18.174 46.1479 19.1577 47.2275 19.8253C48.307 20.4929 49.5215 20.8267 50.8709 20.8267C52.1209 20.8267 53.2218 20.5604 54.1735 20.0277C55.1323 19.4879 55.878 18.728 56.4107 17.7479C56.9505 16.7607 57.2203 15.5994 57.2203 14.2642L58.03 14.4347H51.4675V12.0909H59.7772V14.4347C59.7772 16.2315 59.3936 17.794 58.6266 19.1222C57.8667 20.4503 56.8155 21.4801 55.4732 22.2116C54.138 22.9361 52.6039 23.2983 50.8709 23.2983C48.9391 23.2983 47.2417 22.8438 45.7786 21.9347C44.3226 21.0256 43.1863 19.733 42.3695 18.0568C41.5598 16.3807 41.155 14.392 41.155 12.0909C41.155 10.3651 41.3858 8.81321 41.8475 7.43537C42.3162 6.05043 42.9767 4.87145 43.829 3.89844C44.6813 2.92543 45.6898 2.17969 46.8546 1.66122C48.0194 1.14276 49.3013 0.883522 50.7005 0.883522C51.851 0.883522 52.9235 1.05753 53.9178 1.40554C54.9192 1.74645 55.8105 2.23295 56.5918 2.86506C57.3801 3.49006 58.0371 4.23935 58.5627 5.11293C59.0882 5.9794 59.4505 6.94176 59.6493 8H56.9221ZM83.7113 12.0909C83.7113 14.392 83.2958 16.3807 82.4648 18.0568C81.6339 19.733 80.494 21.0256 79.0451 21.9347C77.5962 22.8438 75.9414 23.2983 74.0806 23.2983C72.2198 23.2983 70.565 22.8438 69.1161 21.9347C67.6673 21.0256 66.5273 19.733 65.6964 18.0568C64.8654 16.3807 64.4499 14.392 64.4499 12.0909C64.4499 9.78977 64.8654 7.80114 65.6964 6.125C66.5273 4.44886 67.6673 3.15625 69.1161 2.24716C70.565 1.33807 72.2198 0.883522 74.0806 0.883522C75.9414 0.883522 77.5962 1.33807 79.0451 2.24716C80.494 3.15625 81.6339 4.44886 82.4648 6.125C83.2958 7.80114 83.7113 9.78977 83.7113 12.0909ZM81.1545 12.0909C81.1545 10.2017 80.8384 8.60724 80.2063 7.30753C79.5813 6.00781 78.7326 5.02415 77.6602 4.35653C76.5948 3.68892 75.4016 3.35511 74.0806 3.35511C72.7596 3.35511 71.5629 3.68892 70.4904 4.35653C69.4251 5.02415 68.5763 6.00781 67.9442 7.30753C67.3192 8.60724 67.0067 10.2017 67.0067 12.0909C67.0067 13.9801 67.3192 15.5746 67.9442 16.8743C68.5763 18.174 69.4251 19.1577 70.4904 19.8253C71.5629 20.4929 72.7596 20.8267 74.0806 20.8267C75.4016 20.8267 76.5948 20.4929 77.6602 19.8253C78.7326 19.1577 79.5813 18.174 80.2063 16.8743C80.8384 15.5746 81.1545 13.9801 81.1545 12.0909Z" fill="#0F234C"/>
</svg>
